# xmcd
#
# Track frame offsets:
#	150
#	23132
#	35950
#	59412
#	69022
#	90178
#	107214
#	129077
#	157778
#	175030
#	184602
#	210182
#
# Disc length: 3005 seconds
#
# Revision: 1
# Processed by: cddbd v1.5.2PL0 Copyright (c) Steve Scherf et al.
# Submitted via: audiograbber 1.83.01
#
DISCID=880bbb0c
DTITLE=The Blues Orphans - Hystericana
DYEAR=2013
DGENRE=Blues
TTITLE0=Smart Phones Dumb People
TTITLE1=Yinzer Polka
TTITLE2=Bon Soir
TTITLE3=Plastic Soup
TTITLE4=Pizza Delivery Girl
TTITLE5=The Bubblin' Crude
TTITLE6=Text Myself
TTITLE7=Across The River
TTITLE8=Gangsta Lovin'
TTITLE9=Anderson Cooper
TTITLE10=Rivers Casino
TTITLE11=Shoot My Radio
EXTD=Band from Pittsburgh PA
EXTT0=
EXTT1=
EXTT2=
EXTT3=
EXTT4=
EXTT5=
EXTT6=
EXTT7=
EXTT8=
EXTT9=
EXTT10=
EXTT11=
PLAYORDER=
